<svg width="31" height="27" viewBox="0 0 31 27" fill="none" xmlns="http://www.w3.org/2000/svg">
<path fill-rule="evenodd" clip-rule="evenodd" d="M15.0442 0.645569C6.72513 0.645569 0 6.67503 0 14.1343C0 20.0969 4.30902 25.1441 10.2868 26.9305C11.0342 27.0648 11.3079 26.6402 11.3079 26.2831C11.3079 25.9704 11.2833 24.8985 11.2833 23.7817C7.09836 24.5858 6.22688 22.1738 6.22688 22.1738C5.55434 20.6105 4.55784 20.2087 4.55784 20.2087C3.18812 19.3824 4.65761 19.3824 4.65761 19.3824C6.177 19.4717 6.97426 20.767 6.97426 20.767C8.31904 22.8214 10.486 22.2409 11.3578 21.8835C11.4822 21.0126 11.881 20.4096 12.3044 20.0747C8.96664 19.762 5.45487 18.6008 5.45487 13.4195C5.45487 11.9456 6.05228 10.7397 6.99889 9.80186C6.84954 9.46695 6.32635 8.08209 7.14855 6.22858C7.14855 6.22858 8.41881 5.8712 11.283 7.61316C12.5092 7.3179 13.7738 7.1677 15.0442 7.16643C16.3144 7.16643 17.6093 7.32293 18.8051 7.61316C21.6695 5.8712 22.9398 6.22858 22.9398 6.22858C23.762 8.08209 23.2385 9.46695 23.0891 9.80186C24.0607 10.7397 24.6335 11.9456 24.6335 13.4195C24.6335 18.6008 21.1217 19.7395 17.759 20.0747C18.3071 20.4989 18.7801 21.3028 18.7801 22.5758C18.7801 24.3847 18.7555 25.8364 18.7555 26.2829C18.7555 26.6402 19.0295 27.0648 19.7766 26.9307C25.7544 25.1438 30.0634 20.0969 30.0634 14.1343C30.088 6.67503 23.3383 0.645569 15.0442 0.645569Z" fill="white"/>
</svg>
