<svg width="21" height="20" viewBox="0 0 21 20" fill="none" xmlns="http://www.w3.org/2000/svg">
<path fill-rule="evenodd" clip-rule="evenodd" d="M5.5 0H8V2.5H13V5H11.5851C11.2134 7.08745 10.2322 8.96396 8.832 10.4389C9.83209 10.9243 10.9467 11.2105 12.1244 11.2462L13.3419 7.5H16.4081L20.4706 20H17.8419L17.0294 17.5H12.7206L11.9081 20H9.27938L11.3272 13.699C9.65799 13.5356 8.10206 12.986 6.74999 12.1406C5.1187 13.1605 3.19069 13.75 1.125 13.75H0.5V11.25H1.125C2.39513 11.25 3.59719 10.9586 4.66796 10.4389C3.85476 9.58228 3.18286 8.59019 2.68964 7.5H5.52724C5.87529 8.04364 6.2863 8.54308 6.74999 8.98805C7.85929 7.92351 8.66711 6.54721 9.03259 5H0.5V2.5H5.5V0ZM16.2169 15L14.875 10.8711L13.5331 15H16.2169Z" fill="#D9D9D9"/>
</svg>
